# xmcd
#
# Track frame offsets:
#	150
#	10119
#	21644
#	33221
#
# Disc length: 558 seconds
#
# Revision: 1
# Processed by: cddbd v1.4PL0 Copyright (c) Steve Scherf et al.
# Submitted via: EasyCDDAExtractor 5.1.0
#
DISCID=26022c04
DTITLE=KON-TIKI - Tribute To Hank Williams
DYEAR=2003
DGENRE=Country
TTITLE0=Honky Tonkin'
TTITLE1=Mind Your Own Business
TTITLE2=Jambalaya
TTITLE3=Honky Tonk Blues
EXTD=
EXTT0=
EXTT1=
EXTT2=
EXTT3=
PLAYORDER=
